<svg xmlns="http://www.w3.org/2000/svg" width="232.94" height="60.97" viewBox="0 0 232.94 60.97">
  <defs>
    <style>
      .cls-1 {
        fill: #004f9f;
      }
    </style>
  </defs>
  <g id="Group_922" transform="translate(-195.19 -398.48)">
    <g id="Group_919">
      <path id="Path_1187" class="cls-1" d="M229.81,459.44l-.11-17.67-8.42,14.18h-5.76l-8.42-13.57v17.06H195.19V420.66h10.75l12.63,20.66,12.3-20.66h10.75l.11,38.78H229.81Z"/>
      <path id="Path_1188" class="cls-1" d="M280.28,449.58v9.86H248.04V420.66h31.52v9.86H260.9v4.54h16.4v9.42H260.9v5.1Z"/>
    </g>
    <g id="Group_920">
      <path id="Path_1189" class="cls-1" d="M362.33,449.58v-5.1h-16.4v-9.42h16.4v-4.54H343.66v-9.86h31.52v38.78H342.94v-9.86Z"/>
      <path id="Path_1190" class="cls-1" d="M416.23,459.44l-.11-17.67-8.42,14.18h-5.76l-8.42-13.57v17.06H381.6V420.66h10.75l12.63,20.66,12.3-20.66h10.74l.11,38.78h-11.9Z"/>
    </g>
    <g id="Group_921">
      <path id="Path_1191" class="cls-1" d="M320,436.25l27.15-37.77L319.3,414.6l-7.43,9.99-12.83,17.63-12.35,17.23h17.24l7.56-11.98,7.75,11.98h17.3Z"/>
      <path id="Path_1192" class="cls-1" d="M304.24,414.6H287.26l12.64,17.98,8.81-12.11Z"/>
    </g>
  </g>
</svg>
