<svg xmlns="http://www.w3.org/2000/svg" width="202.404" height="199.784" viewBox="0 0 202.404 199.784">
    <defs>
        <style>.a{fill:#7a7a7a;}</style>
    </defs>
    <g transform="translate(-1329 -1400.318)">
        <path class="a"
              d="M60.721,102.841A35.421,35.421,0,1,0,25.3,67.421,35.4,35.4,0,0,0,60.721,102.841Zm24.288,10.12H82.385a48.9,48.9,0,0,1-43.327,0H36.433A36.442,36.442,0,0,0,0,149.394V158.5a15.184,15.184,0,0,0,15.18,15.18h91.082a15.184,15.184,0,0,0,15.18-15.18v-9.108A36.442,36.442,0,0,0,85.009,112.961Zm66.793-10.12a30.361,30.361,0,1,0-30.361-30.361A30.368,30.368,0,0,0,151.8,102.841Zm15.18,10.12h-1.2a39.881,39.881,0,0,1-27.957,0h-1.2a35.126,35.126,0,0,0-17.615,4.87,46.282,46.282,0,0,1,12.555,31.562v12.144c0,.7-.158,1.36-.19,2.024h55.851a15.184,15.184,0,0,0,15.18-15.18A35.4,35.4,0,0,0,166.983,112.961Z"
              transform="translate(1329 1368.318)"/>
        <path class="a"
              d="M67.036,32.657H22.2v14.4S1.388,26.028,0,24.633C1.388,23.225,22.2,2,22.2,2v14.54H67.036V2s20.816,21.226,22.2,22.633h0c-1.388,1.395-22.2,22.42-22.2,22.42Z"
              transform="translate(1386 1553.048)"/>
    </g>
</svg>
